<svg xmlns="http://www.w3.org/2000/svg" width="25" height="24" viewBox="0 0 25 24" fill="none">
    <style>
        path {
            fill: black;
        }

        @media (prefers-color-scheme: dark) {
            path {
                fill: white;
            }
        }
    </style>
    <path fill-rule="evenodd" clip-rule="evenodd"
        d="M13.6044 0.493307C13.8221 0.498685 14.0216 0.503611 14.1951 0.503611H15.8023C16.1746 0.503611 16.5084 0.545387 16.7728 0.582302C16.839 0.591538 16.8993 0.600195 16.9554 0.60825C17.1447 0.635414 17.2862 0.655726 17.4426 0.668236C18.318 0.738268 19.0548 0.873118 19.8641 1.07546C20.947 1.34617 21.5868 2.09454 21.8766 2.43354C21.9263 2.49167 21.9657 2.53776 21.9953 2.56734C22.1907 2.76274 22.3414 2.97808 22.4109 3.0773C22.4187 3.08841 22.4254 3.09806 22.4311 3.10607C22.4826 3.17861 22.5032 3.20321 22.5081 3.20884C23.0282 3.67269 23.116 4.27203 23.1418 4.44772L23.1423 4.45158C23.1481 4.49085 23.153 4.52927 23.1565 4.55756C23.2882 4.87305 23.4034 5.21838 23.4931 5.56505C23.5519 5.7112 23.5884 5.86876 23.5984 6.03349C23.6133 6.11228 23.6269 6.1916 23.639 6.2711C23.657 6.32463 23.6806 6.3855 23.7117 6.45975C23.7148 6.46258 23.7178 6.4654 23.7208 6.46822C23.8162 6.5576 23.9958 6.73544 24.1414 7.00259C24.2984 7.29078 24.3787 7.61168 24.3787 7.94821V8.61352C24.3787 8.7715 24.3846 8.90997 24.3918 9.078C24.3965 9.18919 24.4018 9.31333 24.4063 9.46462C24.416 9.7899 24.4187 10.1987 24.3593 10.6142C24.3318 10.807 24.2847 10.9705 24.2455 11.0899C24.2165 11.1783 24.1803 11.2746 24.1605 11.3275C24.1564 11.3383 24.153 11.3474 24.1505 11.3541C24.148 11.3608 24.1458 11.3669 24.1438 11.3725C24.1374 11.5853 24.1146 11.78 24.0994 11.9106C24.0984 11.919 24.0974 11.9272 24.0965 11.935C24.0756 12.1143 24.0677 12.1975 24.0677 12.2684V14.4847C24.0677 15.1071 23.9752 15.6895 23.9017 16.1514L23.9014 16.153C23.8228 16.6476 23.7644 17.0145 23.7563 17.3823C23.7491 17.7059 23.685 18.001 23.6509 18.1581C23.6489 18.1675 23.647 18.1763 23.6452 18.1846C23.6254 18.2765 23.6147 18.3273 23.6072 18.3725C23.6004 18.4134 23.6006 18.425 23.6007 18.4191C23.5884 18.9721 23.4954 19.5347 23.3374 20.0538C23.3291 20.0809 23.3187 20.1168 23.3063 20.1594C23.2543 20.3379 23.1683 20.6332 23.0677 20.8888C22.9447 21.2013 22.7068 21.7186 22.2301 22.1086C22.0607 22.2472 21.9396 22.3767 21.7707 22.5572C21.6577 22.678 21.5233 22.8217 21.3386 23.0063C20.9614 23.3836 20.5268 23.568 20.0927 23.6263C19.9132 23.6504 19.7542 23.65 19.6584 23.6487C19.5893 23.6477 19.5558 23.6466 19.5298 23.6458C19.5024 23.645 19.4834 23.6444 19.4399 23.6444H9.10163C8.41302 23.6444 7.7275 23.6187 7.07201 23.5941C6.79869 23.5839 6.53059 23.5738 6.26967 23.5659C5.97663 23.557 5.73399 23.4871 5.56897 23.4279C5.42693 23.377 5.29277 23.3147 5.2238 23.2827C5.21732 23.2797 5.21141 23.277 5.20613 23.2745C5.17839 23.2617 5.15854 23.2527 5.1424 23.2455C5.01045 23.231 4.87844 23.201 4.74912 23.154C4.58604 23.0948 4.4496 23.0168 4.33871 22.937C4.18621 22.8991 4.02705 22.8459 3.86263 22.7712C3.86263 22.7712 3.85898 22.7686 3.72036 22.7265L3.71433 22.7247C3.60196 22.6905 3.38674 22.6251 3.15584 22.5096C2.77416 22.3188 2.52305 22.0452 2.39962 21.9034C2.34472 21.8403 2.29041 21.7734 2.25712 21.7324C2.25144 21.7254 2.24637 21.7191 2.24201 21.7138C2.20307 21.666 2.19182 21.6536 2.19182 21.6536C2.0071 21.458 1.84594 21.2188 1.73285 21.0295C1.62193 20.8439 1.47746 20.5734 1.39071 20.2915C1.32389 20.0743 1.30061 19.8781 1.28938 19.7534C1.28357 19.6888 1.27988 19.6287 1.27734 19.5856C1.27677 19.576 1.27626 19.5673 1.27579 19.5593C0.984347 19.0331 0.923808 18.4963 0.909614 18.1281C0.901265 17.9115 0.908174 17.7052 0.914439 17.547C0.915846 17.5115 0.917189 17.4789 0.918437 17.4485C0.923434 17.3271 0.926921 17.2423 0.926921 17.1589V9.00233C0.926921 8.54855 1.0117 8.13055 1.06617 7.86202C1.06861 7.85 1.07098 7.83827 1.07329 7.82685C1.13681 7.51254 1.16021 7.3727 1.16021 7.25265C1.16021 7.11903 1.16034 6.8673 1.18221 6.60745C1.19841 6.41498 1.24165 5.95199 1.45982 5.53989C1.46499 5.53012 1.46983 5.52098 1.47442 5.51232C1.48814 5.48643 1.49963 5.46476 1.51116 5.44274C1.52585 5.41468 1.53685 5.39319 1.54574 5.37524C1.54725 5.37219 1.54866 5.36931 1.54998 5.36661C1.56227 4.9866 1.69258 4.68108 1.83061 4.46326C1.86484 4.40925 1.89897 4.36145 1.93013 4.32067C2.03396 3.9588 2.22727 3.70914 2.32793 3.59149C2.51427 3.15603 2.80174 2.81009 3.00263 2.59194C3.27798 2.29293 3.57684 2.03867 3.80004 1.86507C4.59356 1.24788 5.58155 1.29864 6.00232 1.3208C6.13239 1.32764 6.26068 1.33728 6.36938 1.34544L6.37829 1.34611C6.49514 1.35488 6.58961 1.36188 6.678 1.36639C6.85216 1.37527 6.91798 1.36861 6.92621 1.36778C7.01467 1.35109 7.1038 1.33437 7.19213 1.3177C8.46468 1.07755 9.72373 0.839955 10.9891 0.60989C11.8664 0.450376 12.8461 0.474576 13.6044 0.493307Z"
        fill="black" />
</svg>